# xmcd
#
# Track frame offsets:
#	150
#	13455
#	26195
#	41592
#	54928
#	68221
#	82078
#	94352
#	108871
#	123966
#	137365
#	150454
#	165086
#	177795
#	193019
#	207268
#
# Disc length: 2922 seconds
#
# Revision: 1
# Processed by: cddbd v1.5.1PL2 Copyright (c) Steve Scherf et al.
# Submitted via: audiograbber 1.83.01
#
DISCID=cf0b6810
DTITLE=Anita 0'Day - Great Divas
DYEAR=1900
DGENRE=Jazz
TTITLE0=Traveling Man
TTITLE1=I Want a Grown-Up Man
TTITLE2=Boogie Blues
TTITLE3=Chickery Chick
TTITLE4=Opus 1
TTITLE5=Let Me Off Uptown
TTITLE6=Just a Little Bit South of North Carolina
TTITLE7=Slow Down
TTITLE8=Deep in the Blues
TTITLE9=Georgia on My Mind
TTITLE10=Bolero at the Savoy
TTITLE11=The Walls Keep Talking
TTITLE12=Gotta Be Gettin'
TTITLE13='Murder' He Says
TTITLE14=And Her Tears Flowed Like Wine
TTITLE15=Are You Livin' Old Man?
EXTD=
EXTT0=
EXTT1=
EXTT2=
EXTT3=
EXTT4=
EXTT5=
EXTT6=
EXTT7=
EXTT8=
EXTT9=
EXTT10=
EXTT11=
EXTT12=
EXTT13=
EXTT14=
EXTT15=
PLAYORDER=
